            <svg version="1.1" id="Layer_1" xmlns="http://www.w3.org/2000/svg" xmlns:xlink="http://www.w3.org/1999/xlink" x="0px" y="0px" width="32" viewBox="0 0 1250 1250" xml:space="preserve" fill="#04a551">
            <g id="pauls-logo">
               <g fill="#efeefc">
                   <path
                   d="
               M983.960815,229.984543 
                   C1011.464111,236.810287 1038.187256,244.836777 1063.439941,256.865112 
                   C1081.704224,265.564728 1100.121094,274.292847 1117.211914,285.013702 
                   C1136.108398,296.867249 1153.993896,310.472351 1171.509155,324.338531 
                   C1183.185547,333.582275 1193.996948,344.096954 1204.216553,354.963348 
                   C1222.880981,374.808960 1239.705933,396.128387 1253.931030,419.519135 
                   C1268.596558,443.634338 1280.962158,468.837646 1289.456177,495.645233 
                   C1295.541016,514.849426 1299.810303,534.689941 1303.892700,554.452515 
                   C1309.307007,580.663391 1308.962280,607.393677 1307.744995,633.917847 
                   C1306.567139,659.582886 1302.356934,685.042236 1294.482910,709.578186 
                   C1288.610474,727.877930 1282.348633,746.206726 1274.278809,763.603516 
                   C1266.355469,780.684326 1256.390137,796.887634 1246.489746,812.964233 
                   C1233.831177,833.519592 1218.731201,852.305603 1201.341064,869.085999 
                   C1188.844360,881.144470 1176.404297,893.389832 1162.860596,904.200806 
                   C1147.995117,916.066895 1132.510498,927.427429 1116.165894,937.099060 
                   C1097.513794,948.136169 1078.075073,958.150330 1058.130615,966.611450 
                   C1037.867798,975.207458 1016.891357,982.558655 995.638794,988.261292 
                   C974.601074,993.906189 952.890564,997.186584 931.350952,1000.754517 
                   C921.259155,1002.426147 910.884277,1002.544373 900.621338,1002.988647 
                   C888.004578,1003.534851 875.333069,1004.448547 862.753113,1003.827698 
                   C844.418457,1002.922729 826.140320,1000.835693 807.845459,999.171326 
                   C782.969849,996.908203 758.848083,990.701904 735.079285,983.586792 
                   C717.508728,978.327087 700.465881,971.151245 683.484497,964.113464 
                   C658.893677,953.921814 636.074341,940.431030 613.923218,925.685669 
                   C591.447632,910.724365 570.783386,893.592468 551.744385,874.578064 
                   C535.056458,857.911621 519.984070,839.804443 506.532440,820.338745 
                   C484.245209,788.087219 466.979462,753.439514 455.499268,715.946472 
                   C449.523682,696.430847 445.548248,676.519104 442.788666,656.267151 
                   C439.902130,635.083130 438.832123,613.797546 440.316772,592.635193 
                   C441.748138,572.232300 445.150238,551.903137 448.765747,531.735046 
                   C452.904297,508.649017 460.562897,486.406830 470.386597,465.219513 
                   C478.867462,446.928375 489.250580,429.473450 499.471466,412.046906 
                   C511.262299,391.943573 526.376709,374.340332 542.112854,357.185272 
                   C560.158447,337.512573 580.298035,320.393127 601.651001,304.475525 
                   C621.014832,290.040771 641.514893,277.522369 663.033264,266.741119 
                   C691.000916,252.728653 720.090637,241.374832 750.386353,233.465149 
                   C772.652710,227.651779 795.146729,222.728882 818.179016,220.928360 
                   C831.720337,219.869812 845.257996,218.511642 858.822693,218.073196 
                   C873.896790,217.585983 889.082886,216.997284 904.069946,218.250031 
                   C924.650818,219.970322 945.106262,223.266663 965.580627,226.136292 
                   C971.627563,226.983810 977.556946,228.670792 983.960815,229.984543 
               M934.279175,780.856445 
                   C891.583679,802.829529 870.294434,809.487671 846.720581,808.846680 
                   C836.440857,808.567261 826.151245,807.956055 815.912720,806.997498 
                   C795.122009,805.051208 774.944519,800.595581 756.218201,790.909912 
                   C731.787109,778.273682 719.285095,752.281006 730.286072,726.029419 
                   C740.454956,701.763245 758.723572,685.397461 783.383789,676.478943 
                   C791.137390,673.674805 799.304138,671.545288 807.768799,673.923767 
                   C811.734314,675.037964 814.171631,677.465698 814.070190,681.734070 
                   C813.967896,686.041992 813.806702,690.370239 813.280762,694.641479 
                   C812.473206,701.199829 815.564880,707.527893 821.539795,709.595886 
                   C831.917480,713.187744 842.136841,712.854370 851.763855,707.045044 
                   C859.164124,702.579407 863.418518,692.695740 862.367798,684.397766 
                   C860.828308,672.239807 853.705811,664.024475 843.852478,658.055664 
                   C826.663330,647.643127 808.064758,644.356628 788.309265,648.760376 
                   C782.509827,650.053162 776.760620,651.571411 770.998901,652.998901 
                   C770.998901,652.998901 771.010681,653.008057 771.304138,652.408081 
                   C779.748962,643.926575 788.576355,635.788696 796.564270,626.896729 
                   C817.654297,603.419739 833.451111,576.863586 841.070435,545.970398 
                   C847.676758,519.184570 847.288025,492.761261 833.841858,467.937744 
                   C822.216187,446.475159 804.664612,431.674286 780.498596,426.287781 
                   C762.980652,422.383118 745.080322,423.079895 727.365234,425.241028 
                   C700.372986,428.533813 674.388977,436.055969 648.761414,444.944916 
                   C640.405396,447.843231 632.551575,451.304047 628.250366,459.660522 
                   C625.817993,464.386078 623.209839,469.120728 621.586365,474.143921 
                   C617.092957,488.047363 613.083252,502.106964 608.865173,516.099670 
                   C606.784119,523.003235 608.731995,526.186340 615.809570,524.863525 
                   C624.386841,523.260559 632.669922,520.050537 641.052307,517.445923 
                   C650.063599,514.645935 658.937134,511.313904 668.079834,509.063049 
                   C672.646362,507.938843 674.553101,510.393982 673.846924,515.062195 
                   C673.178955,519.477295 672.292358,523.900818 671.016907,528.175964 
                   C657.942749,571.999878 649.317566,616.785400 642.016663,661.855652 
                   C638.357971,684.441284 634.708679,707.031250 631.404785,729.670288 
                   C630.265564,737.476318 628.716492,745.670654 629.927551,753.278076 
                   C632.429077,768.991943 643.467346,779.681274 655.416260,788.989136 
                   C660.429504,792.894287 666.457764,795.785278 672.426086,798.103394 
                   C680.176025,801.113525 683.133606,799.304565 686.262756,791.649597 
                   C688.293884,786.680786 690.479248,781.775085 693.091919,775.683655 
                   C694.506897,777.577271 695.116211,778.592590 695.913330,779.428650 
                   C703.700623,787.595032 711.043884,796.260803 719.416504,803.778931 
                   C746.261292,827.884155 778.484070,839.033936 814.058533,840.916992 
                   C838.544373,842.213013 862.787109,839.877258 886.916199,835.198914 
                   C913.986572,829.950256 937.160706,819.222229 952.285889,794.341064 
                   C963.219360,793.763672 972.490723,789.112366 980.797058,782.380005 
                   C996.780334,769.425354 1007.458435,752.245056 1017.580750,734.802063 
                   C1049.340454,680.073669 1080.975830,625.271606 1112.343018,570.317444 
                   C1132.401611,535.175354 1151.902954,499.715088 1171.649536,464.394958 
                   C1176.557861,455.615662 1174.472656,449.545288 1164.800659,446.856689 
                   C1149.260254,442.536865 1133.555908,438.805542 1117.915039,434.848358 
                   C1111.961182,433.342010 1107.079468,435.313721 1103.124023,439.753326 
                   C1100.466064,442.736511 1098.011719,445.900269 1095.440186,448.961365 
                   C1091.537842,453.606964 1086.746582,456.145325 1080.505127,455.115082 
                   C1072.185547,453.741821 1067.130005,457.706146 1063.203857,464.724548 
                   C1044.260498,498.587524 1025.295654,532.442322 1005.870361,566.029358 
                   C1000.569763,575.194275 1000.102295,579.363281 1012.398071,580.150208 
                   C1020.167053,580.647522 1022.052856,584.934387 1018.098816,591.859192 
                   C1015.130920,597.057007 1011.356323,601.804016 1008.509888,607.059875 
                   C987.100891,646.590027 965.452271,685.998474 944.700500,725.872681 
                   C935.853455,742.872253 930.474121,761.149597 934.279175,780.856445 
               z"/>
               </g>
               <g fill="#9b94c8">
                   <path
                   d="
               M770.988403,652.986328 
                   C776.760620,651.571411 782.509827,650.053162 788.309265,648.760376 
                   C808.064758,644.356628 826.663330,647.643127 843.852478,658.055664 
                   C853.705811,664.024475 860.828308,672.239807 862.367798,684.397766 
                   C863.418518,692.695740 859.164124,702.579407 851.763855,707.045044 
                   C842.136841,712.854370 831.917480,713.187744 821.539795,709.595886 
                   C815.564880,707.527893 812.473206,701.199829 813.280762,694.641479 
                   C813.806702,690.370239 813.967896,686.041992 814.070190,681.734070 
                   C814.171631,677.465698 811.734314,675.037964 807.768799,673.923767 
                   C799.304138,671.545288 791.137390,673.674805 783.383789,676.478943 
                   C758.723572,685.397461 740.454956,701.763245 730.286072,726.029419 
                   C719.285095,752.281006 731.787109,778.273682 756.218201,790.909912 
                   C774.944519,800.595581 795.122009,805.051208 815.912720,806.997498 
                   C826.151245,807.956055 836.440857,808.567261 846.720581,808.846680 
                   C870.294434,809.487671 891.583679,802.829529 910.474182,788.488098 
                   C917.407410,783.224426 925.529907,780.862915 935.135925,780.803528 
                   C947.415344,782.101318 948.641907,783.167236 951.566589,794.284729 
                   C937.160706,819.222229 913.986572,829.950256 886.916199,835.198914 
                   C862.787109,839.877258 838.544373,842.213013 814.058533,840.916992 
                   C778.484070,839.033936 746.261292,827.884155 719.416504,803.778931 
                   C711.043884,796.260803 703.700623,787.595032 695.913330,779.428650 
                   C695.116211,778.592590 694.506897,777.577271 693.091919,775.683655 
                   C690.479248,781.775085 688.293884,786.680786 686.262756,791.649597 
                   C683.133606,799.304565 680.176025,801.113525 672.426086,798.103394 
                   C666.457764,795.785278 660.429504,792.894287 655.416260,788.989136 
                   C643.467346,779.681274 632.429077,768.991943 629.927551,753.278076 
                   C628.716492,745.670654 630.265564,737.476318 631.404785,729.670288 
                   C634.708679,707.031250 638.357971,684.441284 642.016663,661.855652 
                   C649.317566,616.785400 657.942749,571.999878 671.016907,528.175964 
                   C672.292358,523.900818 673.178955,519.477295 673.846924,515.062195 
                   C674.553101,510.393982 672.646362,507.938843 668.079834,509.063049 
                   C658.937134,511.313904 650.063599,514.645935 641.052307,517.445923 
                   C632.669922,520.050537 624.386841,523.260559 615.809570,524.863525 
                   C608.731995,526.186340 606.784119,523.003235 608.865173,516.099670 
                   C613.083252,502.106964 617.092957,488.047363 621.586365,474.143921 
                   C623.209839,469.120728 625.817993,464.386078 628.250366,459.660522 
                   C632.551575,451.304047 640.405396,447.843231 648.761414,444.944916 
                   C674.388977,436.055969 700.372986,428.533813 727.365234,425.241028 
                   C745.080322,423.079895 762.980652,422.383118 780.498596,426.287781 
                   C804.664612,431.674286 822.216187,446.475159 833.841858,467.937744 
                   C847.288025,492.761261 847.676758,519.184570 841.070435,545.970398 
                   C833.451111,576.863586 817.654297,603.419739 796.564270,626.896729 
                   C788.576355,635.788696 779.748962,643.926575 770.998779,652.761841 
                   C770.791687,653.072449 770.890015,653.029358 770.988403,652.986328 
               M727.853577,522.993164 
                   C728.218262,526.618286 729.248169,530.321472 728.833496,533.855164 
                   C726.942688,549.969604 724.851257,566.067627 722.410583,582.107483 
                   C721.155823,590.353760 719.018372,598.465637 717.038696,607.771790 
                   C720.220947,606.694275 722.446594,606.185425 724.453796,605.221741 
                   C738.388672,598.531311 749.340271,588.212708 759.065979,576.445740 
                   C770.509644,562.600220 780.396729,547.804565 783.474854,529.727112 
                   C786.295593,513.161682 781.359131,499.597931 762.328674,496.517181 
                   C751.775635,494.808807 740.812683,495.265533 730.043213,495.408264 
                   C724.205200,495.485596 718.385559,496.951569 713.486267,497.657349 
                   C718.290344,506.005035 722.952454,514.105957 727.853577,522.993164 
               z"/>
               </g>
               <g fill="#04a551">
                   <path
                   d="
               M951.926270,794.312866 
                   C948.641907,783.167236 947.415344,782.101318 935.592346,780.787598 
                   C930.474121,761.149597 935.853455,742.872253 944.700500,725.872681 
                   C965.452271,685.998474 987.100891,646.590027 1008.509888,607.059875 
                   C1011.356323,601.804016 1015.130920,597.057007 1018.098816,591.859192 
                   C1022.052856,584.934387 1020.167053,580.647522 1012.398071,580.150208 
                   C1000.102295,579.363281 1000.569763,575.194275 1005.870361,566.029358 
                   C1025.295654,532.442322 1044.260498,498.587524 1063.203857,464.724548 
                   C1067.130005,457.706146 1072.185547,453.741821 1080.505127,455.115082 
                   C1086.746582,456.145325 1091.537842,453.606964 1095.440186,448.961365 
                   C1098.011719,445.900269 1100.466064,442.736511 1103.124023,439.753326 
                   C1107.079468,435.313721 1111.961182,433.342010 1117.915039,434.848358 
                   C1133.555908,438.805542 1149.260254,442.536865 1164.800659,446.856689 
                   C1174.472656,449.545288 1176.557861,455.615662 1171.649536,464.394958 
                   C1151.902954,499.715088 1132.401611,535.175354 1112.343018,570.317444 
                   C1080.975830,625.271606 1049.340454,680.073669 1017.580750,734.802063 
                   C1007.458435,752.245056 996.780334,769.425354 980.797058,782.380005 
                   C972.490723,789.112366 963.219360,793.763672 951.926270,794.312866 
               M1130.578491,488.216705 
                   C1132.376221,485.028198 1134.268188,481.888245 1135.943481,478.636688 
                   C1137.445190,475.721863 1136.463867,474.255157 1133.103516,474.334839 
                   C1129.439941,474.421753 1125.722290,474.744812 1122.117676,474.276245 
                   C1115.196167,473.376465 1111.693237,476.754364 1108.459717,482.492767 
                   C1092.782227,510.314636 1076.669434,537.890991 1060.764526,565.585083 
                   C1057.173950,571.837036 1053.797241,578.211975 1049.577881,585.883545 
                   C1056.505737,585.883545 1061.954956,585.524902 1067.333984,585.985474 
                   C1072.606323,586.436829 1075.609375,584.257080 1078.111694,579.858276 
                   C1095.395874,549.475647 1112.838745,519.183167 1130.578491,488.216705 
               z"/>
               </g>
               <g fill="#e5e6e8">
                   <path
                   d="
               M727.734070,522.600037 
                   C722.952454,514.105957 718.290344,506.005035 713.486267,497.657349 
                   C718.385559,496.951569 724.205200,495.485596 730.043213,495.408264 
                   C740.812683,495.265533 751.775635,494.808807 762.328674,496.517181 
                   C781.359131,499.597931 786.295593,513.161682 783.474854,529.727112 
                   C780.396729,547.804565 770.509644,562.600220 759.065979,576.445740 
                   C749.340271,588.212708 738.388672,598.531311 724.453796,605.221741 
                   C722.446594,606.185425 720.220947,606.694275 717.038696,607.771790 
                   C719.018372,598.465637 721.155823,590.353760 722.410583,582.107483 
                   C724.851257,566.067627 726.942688,549.969604 728.833496,533.855164 
                   C729.248169,530.321472 728.218262,526.618286 727.734070,522.600037 
               z"/>
               </g>
               <g fill="#e5e6e8">
                   <path 
                   d="
               M770.993652,652.992615 
                   C770.890015,653.029358 770.791687,653.072449 770.852051,653.061768 
                   C771.010681,653.008057 770.998901,652.998901 770.993652,652.992615 
               z"/>
               </g>
               <g fill="#e5e6e8">
                   <path id="pen-bsp"
                   d="
               M1130.404541,488.539246 
                   C1112.838745,519.183167 1095.395874,549.475647 1078.111694,579.858276 
                   C1075.609375,584.257080 1072.606323,586.436829 1067.333984,585.985474 
                   C1061.954956,585.524902 1056.505737,585.883545 1049.577881,585.883545 
                   C1053.797241,578.211975 1057.173950,571.837036 1060.764526,565.585083 
                   C1076.669434,537.890991 1092.782227,510.314636 1108.459717,482.492767 
                   C1111.693237,476.754364 1115.196167,473.376465 1122.117676,474.276245 
                   C1125.722290,474.744812 1129.439941,474.421753 1133.103516,474.334839 
                   C1136.463867,474.255157 1137.445190,475.721863 1135.943481,478.636688 
                   C1134.268188,481.888245 1132.376221,485.028198 1130.404541,488.539246 
               z"/>
               </g>
           </g>
       </svg>