<svg version="1.1" id="Layer_1" xmlns="http://www.w3.org/2000/svg" xmlns:xlink="http://www.w3.org/1999/xlink" x="0px" y="0px"
	 width="100%" viewBox="0 0 794 1122" enable-background="new 0 0 794 1122" xml:space="preserve">
<path fill="#000000" opacity="1.000000" stroke="none" 
	d="
M393.000000,1123.000000 
	C262.000000,1123.000000 131.500000,1123.000000 1.000000,1123.000000 
	C1.000000,749.000000 1.000000,375.000000 1.000000,1.000000 
	C265.666656,1.000000 530.333313,1.000000 795.000000,1.000000 
	C795.000000,375.000000 795.000000,749.000000 795.000000,1123.000000 
	C661.166687,1123.000000 527.333313,1123.000000 393.000000,1123.000000 
M490.429077,150.956161 
	C488.249420,149.965164 486.159332,148.614075 483.874542,148.045685 
	C474.121338,145.619308 464.409393,142.687164 454.492279,141.357193 
	C445.059723,140.092239 435.823273,136.649384 426.073395,138.016861 
	C425.599854,138.083267 425.094513,137.949341 424.606995,137.885391 
	C419.787933,137.253036 414.911285,135.800598 410.162262,136.139557 
	C398.069977,137.002655 385.994080,138.382889 373.991150,140.108978 
	C366.116852,141.241364 358.346863,143.192307 350.589966,145.029205 
	C332.783813,149.245804 316.244873,156.542511 300.177277,165.252777 
	C276.574005,178.048172 256.399597,195.097229 239.967117,215.945465 
	C226.063217,233.585632 213.798615,252.690674 208.466812,275.123230 
	C205.727066,286.650299 202.212677,298.189575 201.288208,309.900116 
	C200.225677,323.359131 200.613113,337.140015 202.261734,350.548615 
	C203.988922,364.596405 208.276505,378.174133 213.590454,391.519806 
	C222.384598,413.605743 235.604431,432.570221 251.481110,449.834656 
	C257.268860,456.128296 264.151489,461.424164 270.607056,467.092743 
	C287.581726,481.998077 307.283661,492.323792 328.110077,500.534485 
	C348.069519,508.403381 368.909058,513.668518 390.260345,514.737976 
	C409.593018,515.706421 429.064606,515.813110 448.397003,512.160828 
	C466.860077,508.672791 484.715790,503.556671 501.850006,495.981384 
	C524.019592,486.179810 543.881409,472.767792 561.373657,456.033600 
	C574.160889,443.800537 584.981018,430.008514 594.170898,414.728058 
	C609.985657,388.431946 617.656738,359.939484 618.874390,329.623383 
	C619.266663,319.856567 618.512817,309.864685 616.805176,300.237915 
	C614.671814,288.210480 611.688538,276.345612 607.168152,264.801300 
	C598.370239,242.332764 586.215454,222.191467 569.380737,204.902023 
	C565.651001,201.071533 561.806519,197.353012 558.042908,193.555145 
	C555.780396,191.272064 553.717529,188.767822 551.299683,186.668396 
	C548.755249,184.459076 545.403748,183.031586 543.270996,180.525391 
	C538.291931,174.674408 531.936768,170.811752 525.448730,167.131821 
	C522.489807,165.453613 518.956238,164.812775 515.909424,163.258286 
	C512.978882,161.763153 510.495087,159.374435 507.539307,157.950760 
	C502.230316,155.393646 496.714874,153.265137 490.429077,150.956161 
z"/>
<path fill="#E6E7E8" opacity="1.000000" stroke="none" 
	d="
M490.857391,150.956848 
	C496.714874,153.265137 502.230316,155.393646 507.539307,157.950760 
	C510.495087,159.374435 512.978882,161.763153 515.909424,163.258286 
	C518.956238,164.812775 522.489807,165.453613 525.448730,167.131821 
	C531.936768,170.811752 538.291931,174.674408 543.270996,180.525391 
	C545.403748,183.031586 548.755249,184.459076 551.299683,186.668396 
	C553.717529,188.767822 555.780396,191.272064 558.042908,193.555145 
	C561.806519,197.353012 565.651001,201.071533 569.380737,204.902023 
	C586.215454,222.191467 598.370239,242.332764 607.168152,264.801300 
	C611.688538,276.345612 614.671814,288.210480 616.805176,300.237915 
	C618.512817,309.864685 619.266663,319.856567 618.874390,329.623383 
	C617.656738,359.939484 609.985657,388.431946 594.170898,414.728058 
	C584.981018,430.008514 574.160889,443.800537 561.373657,456.033600 
	C543.881409,472.767792 524.019592,486.179810 501.850006,495.981384 
	C484.715790,503.556671 466.860077,508.672791 448.397003,512.160828 
	C429.064606,515.813110 409.593018,515.706421 390.260345,514.737976 
	C368.909058,513.668518 348.069519,508.403381 328.110077,500.534485 
	C307.283661,492.323792 287.581726,481.998077 270.607056,467.092743 
	C264.151489,461.424164 257.268860,456.128296 251.481110,449.834656 
	C235.604431,432.570221 222.384598,413.605743 213.590454,391.519806 
	C208.276505,378.174133 203.988922,364.596405 202.261734,350.548615 
	C200.613113,337.140015 200.225677,323.359131 201.288208,309.900116 
	C202.212677,298.189575 205.727066,286.650299 208.466812,275.123230 
	C213.798615,252.690674 226.063217,233.585632 239.967117,215.945465 
	C256.399597,195.097229 276.574005,178.048172 300.177277,165.252777 
	C316.244873,156.542511 332.783813,149.245804 350.589966,145.029205 
	C358.346863,143.192307 366.116852,141.241364 373.991150,140.108978 
	C385.994080,138.382889 398.069977,137.002655 410.162262,136.139557 
	C414.911285,135.800598 419.787933,137.253036 424.606995,137.885391 
	C425.094513,137.949341 425.599854,138.083267 426.073395,138.016861 
	C435.823273,136.649384 445.059723,140.092239 454.492279,141.357193 
	C464.409393,142.687164 474.121338,145.619308 483.874542,148.045685 
	C486.159332,148.614075 488.249420,149.965164 490.857391,150.956848 
M438.152313,407.890167 
	C434.428253,409.144653 430.173889,409.637939 427.078125,411.794373 
	C417.229401,418.654968 406.613312,421.526642 394.642059,421.172638 
	C379.509766,420.725159 364.746094,419.247620 351.256165,411.655975 
	C340.776093,405.758148 336.068604,394.238464 340.164154,383.026184 
	C345.507721,368.397156 356.427094,359.858398 371.419250,356.451324 
	C378.929138,354.744629 381.569275,357.544617 380.850342,365.199738 
	C380.626587,367.582336 381.105560,370.764404 382.572174,372.422180 
	C385.795441,376.065521 394.879395,375.512299 399.375183,372.070099 
	C403.810638,368.674133 405.242371,362.936584 402.915527,357.733734 
	C399.615204,350.354126 393.246094,346.292969 385.901703,345.248596 
	C378.039062,344.130493 369.894257,344.996429 362.145447,344.996429 
	C366.874573,339.747131 372.501373,334.329620 377.154938,328.176086 
	C389.617035,311.697205 397.693481,293.760864 395.090149,272.237976 
	C392.799225,253.297821 376.101746,237.731796 357.119446,236.843781 
	C336.879974,235.896942 317.801483,240.666260 299.190491,247.739853 
	C295.963013,248.966553 292.457550,252.071152 291.129639,255.182846 
	C287.556396,263.555908 285.020813,272.379211 282.228912,281.073730 
	C281.384491,283.703461 282.524445,285.372131 285.494476,285.037903 
	C287.295532,284.835144 289.117737,284.483795 290.831909,283.906677 
	C296.666992,281.942200 302.490997,279.934998 308.255219,277.773376 
	C312.305359,276.254578 313.687531,277.917694 312.990265,281.663300 
	C312.232300,285.735077 310.850861,289.689453 310.064087,293.757446 
	C304.357422,323.264648 298.382294,352.726562 293.220093,382.329742 
	C290.383026,398.599396 297.916138,410.885010 311.874451,415.955597 
	C315.832123,417.393311 318.256165,416.584930 319.665009,412.582733 
	C320.406677,410.475769 321.390472,408.454041 322.511200,405.813721 
	C324.620728,408.076477 326.232422,409.730408 327.761322,411.457672 
	C336.427673,421.248566 346.765228,428.498871 359.248505,432.667664 
	C377.345062,438.711060 395.571899,437.600098 413.955231,434.275360 
	C427.575470,431.812042 439.498535,426.848541 447.792755,414.278015 
	C452.527893,412.055420 458.057770,410.726227 461.804871,407.392914 
	C466.937988,402.826660 471.502197,397.192780 474.952087,391.230621 
	C500.865845,346.445770 526.462463,301.477325 552.106384,256.536682 
	C554.990479,251.482376 553.971191,248.974976 548.294861,247.322021 
	C542.233643,245.556976 535.992798,244.400452 529.953186,242.572296 
	C524.597595,240.951187 520.596313,242.064148 517.437012,246.773285 
	C515.083069,250.281982 511.960571,251.950607 507.316833,251.851822 
	C505.040924,251.803406 501.821198,254.239990 500.530975,256.434967 
	C491.005737,272.639404 481.911987,289.096710 472.551300,305.399139 
	C470.585846,308.822174 470.414185,310.694977 475.031067,311.490936 
	C480.296753,312.398712 480.633301,313.818878 478.000793,318.555420 
	C467.903503,336.722839 457.819641,354.898590 447.891235,373.158478 
	C445.119385,378.256378 442.032410,383.439270 440.659485,388.972595 
	C439.155029,395.036163 439.466095,401.550201 438.152313,407.890167 
z"/>
<path fill="#9E99CA" opacity="1.000000" stroke="none" 
	d="
M446.966309,414.343781 
	C439.498535,426.848541 427.575470,431.812042 413.955231,434.275360 
	C395.571899,437.600098 377.345062,438.711060 359.248505,432.667664 
	C346.765228,428.498871 336.427673,421.248566 327.761322,411.457672 
	C326.232422,409.730408 324.620728,408.076477 322.511200,405.813721 
	C321.390472,408.454041 320.406677,410.475769 319.665009,412.582733 
	C318.256165,416.584930 315.832123,417.393311 311.874451,415.955597 
	C297.916138,410.885010 290.383026,398.599396 293.220093,382.329742 
	C298.382294,352.726562 304.357422,323.264648 310.064087,293.757446 
	C310.850861,289.689453 312.232300,285.735077 312.990265,281.663300 
	C313.687531,277.917694 312.305359,276.254578 308.255219,277.773376 
	C302.490997,279.934998 296.666992,281.942200 290.831909,283.906677 
	C289.117737,284.483795 287.295532,284.835144 285.494476,285.037903 
	C282.524445,285.372131 281.384491,283.703461 282.228912,281.073730 
	C285.020813,272.379211 287.556396,263.555908 291.129639,255.182846 
	C292.457550,252.071152 295.963013,248.966553 299.190491,247.739853 
	C317.801483,240.666260 336.879974,235.896942 357.119446,236.843781 
	C376.101746,237.731796 392.799225,253.297821 395.090149,272.237976 
	C397.693481,293.760864 389.617035,311.697205 377.154938,328.176086 
	C372.501373,334.329620 366.874573,339.747131 362.145447,344.996429 
	C369.894257,344.996429 378.039062,344.130493 385.901703,345.248596 
	C393.246094,346.292969 399.615204,350.354126 402.915527,357.733734 
	C405.242371,362.936584 403.810638,368.674133 399.375183,372.070099 
	C394.879395,375.512299 385.795441,376.065521 382.572174,372.422180 
	C381.105560,370.764404 380.626587,367.582336 380.850342,365.199738 
	C381.569275,357.544617 378.929138,354.744629 371.419250,356.451324 
	C356.427094,359.858398 345.507721,368.397156 340.164154,383.026184 
	C336.068604,394.238464 340.776093,405.758148 351.256165,411.655975 
	C364.746094,419.247620 379.509766,420.725159 394.642059,421.172638 
	C406.613312,421.526642 417.229401,418.654968 427.078125,411.794373 
	C430.173889,409.637939 434.428253,409.144653 438.966278,407.902618 
	C444.066254,407.944580 446.658600,409.867279 446.966309,414.343781 
M360.314819,272.908081 
	C351.150513,269.543396 341.957428,270.691986 332.389374,272.190369 
	C339.737030,282.976868 340.914581,286.132538 339.805084,294.170410 
	C338.877594,300.889435 337.571228,307.556213 336.430725,314.245789 
	C335.900909,317.353455 335.366516,320.460297 334.744751,324.089691 
	C336.485809,323.792816 337.210358,323.849640 337.735718,323.553345 
	C351.822968,315.607849 361.557587,303.993530 365.734772,288.355225 
	C367.178040,282.951935 366.912811,276.941650 360.314819,272.908081 
z"/>
<path fill="#03A85B" opacity="1.000000" stroke="none" 
	d="
M447.379517,414.310913 
	C446.658600,409.867279 444.066254,407.944580 439.383118,407.891479 
	C439.466095,401.550201 439.155029,395.036163 440.659485,388.972595 
	C442.032410,383.439270 445.119385,378.256378 447.891235,373.158478 
	C457.819641,354.898590 467.903503,336.722839 478.000793,318.555420 
	C480.633301,313.818878 480.296753,312.398712 475.031067,311.490936 
	C470.414185,310.694977 470.585846,308.822174 472.551300,305.399139 
	C481.911987,289.096710 491.005737,272.639404 500.530975,256.434967 
	C501.821198,254.239990 505.040924,251.803406 507.316833,251.851822 
	C511.960571,251.950607 515.083069,250.281982 517.437012,246.773285 
	C520.596313,242.064148 524.597595,240.951187 529.953186,242.572296 
	C535.992798,244.400452 542.233643,245.556976 548.294861,247.322021 
	C553.971191,248.974976 554.990479,251.482376 552.106384,256.536682 
	C526.462463,301.477325 500.865845,346.445770 474.952087,391.230621 
	C471.502197,397.192780 466.937988,402.826660 461.804871,407.392914 
	C458.057770,410.726227 452.527893,412.055420 447.379517,414.310913 
M514.637146,299.170990 
	C521.759766,286.718536 528.882446,274.266083 536.136292,261.584229 
	C525.291321,259.729889 524.935303,259.894928 520.021240,268.445129 
	C512.242981,281.978912 504.456848,295.508148 496.687042,309.046783 
	C495.829254,310.541443 495.056610,312.084961 494.185211,313.716797 
	C503.153931,316.137726 505.378601,315.296448 509.284027,308.433289 
	C510.926636,305.546600 512.596985,302.675659 514.637146,299.170990 
z"/>
<path fill="#E6E7E8" opacity="1.000000" stroke="none" 
	d="
M360.646973,273.111023 
	C366.912811,276.941650 367.178040,282.951935 365.734772,288.355225 
	C361.557587,303.993530 351.822968,315.607849 337.735718,323.553345 
	C337.210358,323.849640 336.485809,323.792816 334.744751,324.089691 
	C335.366516,320.460297 335.900909,317.353455 336.430725,314.245789 
	C337.571228,307.556213 338.877594,300.889435 339.805084,294.170410 
	C340.914581,286.132538 339.737030,282.976868 332.389374,272.190369 
	C341.957428,270.691986 351.150513,269.543396 360.646973,273.111023 
z"/>
<path fill="#D9DCE2" opacity="1.000000" stroke="none" 
	d="
M514.445923,299.484283 
	C512.596985,302.675659 510.926636,305.546600 509.284027,308.433289 
	C505.378601,315.296448 503.153931,316.137726 494.185211,313.716797 
	C495.056610,312.084961 495.829254,310.541443 496.687042,309.046783 
	C504.456848,295.508148 512.242981,281.978912 520.021240,268.445129 
	C524.935303,259.894928 525.291321,259.729889 536.136292,261.584229 
	C528.882446,274.266083 521.759766,286.718536 514.445923,299.484283 
z"/>
</svg>